<mxfile host="app.diagrams.net" modified="2022-02-15T15:33:49.093Z" agent="5.0 (Macintosh; Intel Mac OS X 10_15_7) AppleWebKit/537.36 (KHTML, like Gecko) Chrome/98.0.4758.80 Safari/537.36" etag="GwouqKzS93dju1mi6r1O" version="16.5.6" type="github">
  <diagram id="eeuKYtuncwknBs3eNNl9" name="Page-1">
    <mxGraphModel dx="1395" dy="861" grid="1" gridSize="10" guides="1" tooltips="1" connect="1" arrows="1" fold="1" page="1" pageScale="1" pageWidth="827" pageHeight="1169" math="0" shadow="0">
      <root>
        <mxCell id="0" />
        <mxCell id="1" parent="0" />
        <mxCell id="-ZEZr_MwCLdf86qs8En4-5" value="" style="rounded=0;whiteSpace=wrap;html=1;fillColor=#dae8fc;strokeColor=#6c8ebf;" parent="1" vertex="1">
          <mxGeometry x="464" y="90" width="340" height="290" as="geometry" />
        </mxCell>
        <mxCell id="-ZEZr_MwCLdf86qs8En4-3" style="edgeStyle=orthogonalEdgeStyle;rounded=0;orthogonalLoop=1;jettySize=auto;html=1;exitX=0.5;exitY=0;exitDx=0;exitDy=0;entryX=0.5;entryY=0;entryDx=0;entryDy=0;curved=1;strokeColor=#009900;" parent="1" source="-ZEZr_MwCLdf86qs8En4-1" target="-ZEZr_MwCLdf86qs8En4-2" edge="1">
          <mxGeometry relative="1" as="geometry">
            <Array as="points">
              <mxPoint x="529" y="180" />
              <mxPoint x="739" y="180" />
            </Array>
          </mxGeometry>
        </mxCell>
        <mxCell id="-ZEZr_MwCLdf86qs8En4-7" value="&lt;b&gt;(1, 0)&lt;/b&gt;" style="edgeLabel;html=1;align=center;verticalAlign=middle;resizable=0;points=[];" parent="-ZEZr_MwCLdf86qs8En4-3" vertex="1" connectable="0">
          <mxGeometry x="-0.0276" relative="1" as="geometry">
            <mxPoint as="offset" />
          </mxGeometry>
        </mxCell>
        <mxCell id="S4009wVQ3V9HcJUpgxrX-2" style="rounded=0;orthogonalLoop=1;jettySize=auto;html=1;exitX=0;exitY=0.5;exitDx=0;exitDy=0;entryX=1;entryY=0.508;entryDx=0;entryDy=0;entryPerimeter=0;dashed=1;" edge="1" parent="1" source="-ZEZr_MwCLdf86qs8En4-1" target="S4009wVQ3V9HcJUpgxrX-1">
          <mxGeometry relative="1" as="geometry" />
        </mxCell>
        <mxCell id="-ZEZr_MwCLdf86qs8En4-1" value="myid = 1" style="ellipse;whiteSpace=wrap;html=1;aspect=fixed;fillColor=#d5e8d4;strokeColor=#82b366;" parent="1" vertex="1">
          <mxGeometry x="489" y="220" width="80" height="80" as="geometry" />
        </mxCell>
        <mxCell id="-ZEZr_MwCLdf86qs8En4-4" style="edgeStyle=orthogonalEdgeStyle;curved=1;rounded=0;orthogonalLoop=1;jettySize=auto;html=1;exitX=0.5;exitY=1;exitDx=0;exitDy=0;entryX=0.5;entryY=1;entryDx=0;entryDy=0;strokeColor=#FF0000;" parent="1" source="-ZEZr_MwCLdf86qs8En4-2" target="-ZEZr_MwCLdf86qs8En4-1" edge="1">
          <mxGeometry relative="1" as="geometry">
            <Array as="points">
              <mxPoint x="739" y="340" />
              <mxPoint x="529" y="340" />
            </Array>
          </mxGeometry>
        </mxCell>
        <mxCell id="-ZEZr_MwCLdf86qs8En4-8" value="&lt;b&gt;(2, 0)&lt;/b&gt;" style="edgeLabel;html=1;align=center;verticalAlign=middle;resizable=0;points=[];" parent="-ZEZr_MwCLdf86qs8En4-4" vertex="1" connectable="0">
          <mxGeometry x="-0.0138" y="1" relative="1" as="geometry">
            <mxPoint as="offset" />
          </mxGeometry>
        </mxCell>
        <mxCell id="S4009wVQ3V9HcJUpgxrX-6" style="edgeStyle=none;rounded=0;orthogonalLoop=1;jettySize=auto;html=1;exitX=1;exitY=0.5;exitDx=0;exitDy=0;dashed=1;" edge="1" parent="1" source="-ZEZr_MwCLdf86qs8En4-2" target="S4009wVQ3V9HcJUpgxrX-5">
          <mxGeometry relative="1" as="geometry" />
        </mxCell>
        <mxCell id="-ZEZr_MwCLdf86qs8En4-2" value="myid = 2" style="ellipse;whiteSpace=wrap;html=1;aspect=fixed;fillColor=#d5e8d4;strokeColor=#82b366;" parent="1" vertex="1">
          <mxGeometry x="699" y="220" width="80" height="80" as="geometry" />
        </mxCell>
        <mxCell id="-ZEZr_MwCLdf86qs8En4-6" value="第一轮选票&lt;br&gt;（2, 0) 选票胜" style="text;html=1;strokeColor=none;fillColor=none;align=center;verticalAlign=middle;whiteSpace=wrap;rounded=0;" parent="1" vertex="1">
          <mxGeometry x="576" y="110" width="116" height="30" as="geometry" />
        </mxCell>
        <mxCell id="S4009wVQ3V9HcJUpgxrX-1" value="myid = 1 的机器，投出去(1, 0)，收到的票是 (2, 0)，将收到的票与自己投出去的票进行对比，优先选择 zxid 大的为 leader，zxid 越大表示数据越新，如果 zxid 一样，则优先选择 myid 较大的作为 leader，推荐 (2, 0) 为 leader，但是选票没有过半，所以不能确定 leader" style="shape=note;whiteSpace=wrap;html=1;backgroundOutline=1;darkOpacity=0.05;size=16;perimeterSpacing=0;spacing=5;spacingTop=5;spacingLeft=5;spacingBottom=5;spacingRight=5;align=left;fillColor=#fff2cc;strokeColor=#d6b656;" vertex="1" parent="1">
          <mxGeometry x="160" y="200" width="270" height="120" as="geometry" />
        </mxCell>
        <mxCell id="S4009wVQ3V9HcJUpgxrX-5" value="myid = 2 的机器，投出去(2, 0)，收到的票是 (1, 0)，还是推荐 (2, 0) 做为 leader" style="shape=note;whiteSpace=wrap;html=1;backgroundOutline=1;darkOpacity=0.05;size=16;perimeterSpacing=0;spacing=5;spacingTop=5;spacingLeft=5;spacingBottom=5;spacingRight=5;align=left;fillColor=#fff2cc;strokeColor=#d6b656;" vertex="1" parent="1">
          <mxGeometry x="850" y="195" width="170" height="130" as="geometry" />
        </mxCell>
        <mxCell id="S4009wVQ3V9HcJUpgxrX-7" value="" style="rounded=0;whiteSpace=wrap;html=1;fillColor=#dae8fc;strokeColor=#6c8ebf;" vertex="1" parent="1">
          <mxGeometry x="464" y="450" width="340" height="290" as="geometry" />
        </mxCell>
        <mxCell id="S4009wVQ3V9HcJUpgxrX-8" style="edgeStyle=orthogonalEdgeStyle;rounded=0;orthogonalLoop=1;jettySize=auto;html=1;exitX=0.5;exitY=0;exitDx=0;exitDy=0;entryX=0.5;entryY=0;entryDx=0;entryDy=0;curved=1;strokeColor=#009900;" edge="1" parent="1" source="S4009wVQ3V9HcJUpgxrX-10" target="S4009wVQ3V9HcJUpgxrX-13">
          <mxGeometry relative="1" as="geometry">
            <Array as="points">
              <mxPoint x="529" y="540" />
              <mxPoint x="739" y="540" />
            </Array>
          </mxGeometry>
        </mxCell>
        <mxCell id="S4009wVQ3V9HcJUpgxrX-9" value="(2, 0)" style="edgeLabel;html=1;align=center;verticalAlign=middle;resizable=0;points=[];fontStyle=1" vertex="1" connectable="0" parent="S4009wVQ3V9HcJUpgxrX-8">
          <mxGeometry x="-0.0276" relative="1" as="geometry">
            <mxPoint as="offset" />
          </mxGeometry>
        </mxCell>
        <mxCell id="S4009wVQ3V9HcJUpgxrX-16" style="edgeStyle=none;rounded=0;orthogonalLoop=1;jettySize=auto;html=1;exitX=0;exitY=0.5;exitDx=0;exitDy=0;entryX=1;entryY=0.5;entryDx=0;entryDy=0;entryPerimeter=0;dashed=1;" edge="1" parent="1" source="S4009wVQ3V9HcJUpgxrX-10" target="S4009wVQ3V9HcJUpgxrX-15">
          <mxGeometry relative="1" as="geometry" />
        </mxCell>
        <mxCell id="S4009wVQ3V9HcJUpgxrX-10" value="myid = 1" style="ellipse;whiteSpace=wrap;html=1;aspect=fixed;fillColor=#d5e8d4;strokeColor=#82b366;" vertex="1" parent="1">
          <mxGeometry x="489" y="580" width="80" height="80" as="geometry" />
        </mxCell>
        <mxCell id="S4009wVQ3V9HcJUpgxrX-11" style="edgeStyle=orthogonalEdgeStyle;curved=1;rounded=0;orthogonalLoop=1;jettySize=auto;html=1;exitX=0.5;exitY=1;exitDx=0;exitDy=0;entryX=0.5;entryY=1;entryDx=0;entryDy=0;strokeColor=#FF0000;" edge="1" parent="1" source="S4009wVQ3V9HcJUpgxrX-13" target="S4009wVQ3V9HcJUpgxrX-10">
          <mxGeometry relative="1" as="geometry">
            <Array as="points">
              <mxPoint x="739" y="700" />
              <mxPoint x="529" y="700" />
            </Array>
          </mxGeometry>
        </mxCell>
        <mxCell id="S4009wVQ3V9HcJUpgxrX-12" value="(2, 0)" style="edgeLabel;html=1;align=center;verticalAlign=middle;resizable=0;points=[];fontStyle=1" vertex="1" connectable="0" parent="S4009wVQ3V9HcJUpgxrX-11">
          <mxGeometry x="-0.0138" y="1" relative="1" as="geometry">
            <mxPoint as="offset" />
          </mxGeometry>
        </mxCell>
        <mxCell id="S4009wVQ3V9HcJUpgxrX-18" style="edgeStyle=none;rounded=0;orthogonalLoop=1;jettySize=auto;html=1;exitX=1;exitY=0.5;exitDx=0;exitDy=0;entryX=0;entryY=0.5;entryDx=0;entryDy=0;entryPerimeter=0;dashed=1;strokeColor=#000000;" edge="1" parent="1" source="S4009wVQ3V9HcJUpgxrX-13" target="S4009wVQ3V9HcJUpgxrX-17">
          <mxGeometry relative="1" as="geometry" />
        </mxCell>
        <mxCell id="S4009wVQ3V9HcJUpgxrX-13" value="myid = 2" style="ellipse;whiteSpace=wrap;html=1;aspect=fixed;fillColor=#d5e8d4;strokeColor=#82b366;" vertex="1" parent="1">
          <mxGeometry x="699" y="580" width="80" height="80" as="geometry" />
        </mxCell>
        <mxCell id="S4009wVQ3V9HcJUpgxrX-14" value="第二轮选票&lt;br&gt;（2, 0) 选票胜，超过半数节点选 2 号为 leader" style="text;html=1;strokeColor=none;fillColor=none;align=center;verticalAlign=middle;whiteSpace=wrap;rounded=0;" vertex="1" parent="1">
          <mxGeometry x="502" y="470" width="264" height="40" as="geometry" />
        </mxCell>
        <mxCell id="S4009wVQ3V9HcJUpgxrX-15" value="myid = 1 的机器，投出去(2, 0)，收到的票是 (2, 0)，投一台机器的票数已经超过了集群的机器的一半数量，此时选举就结束了，确定 myid = 2 为 leader" style="shape=note;whiteSpace=wrap;html=1;backgroundOutline=1;darkOpacity=0.05;size=16;perimeterSpacing=0;spacing=5;spacingTop=5;spacingLeft=5;spacingBottom=5;spacingRight=5;align=left;fillColor=#fff2cc;strokeColor=#d6b656;" vertex="1" parent="1">
          <mxGeometry x="160" y="560" width="270" height="120" as="geometry" />
        </mxCell>
        <mxCell id="S4009wVQ3V9HcJUpgxrX-17" value="myid = 2 的机器，投出去(2, 0)，收到的票是 (2, 0)，确定 (2, 0) 做为 leader" style="shape=note;whiteSpace=wrap;html=1;backgroundOutline=1;darkOpacity=0.05;size=16;perimeterSpacing=0;spacing=5;spacingTop=5;spacingLeft=5;spacingBottom=5;spacingRight=5;align=left;fillColor=#fff2cc;strokeColor=#d6b656;" vertex="1" parent="1">
          <mxGeometry x="850" y="555" width="170" height="130" as="geometry" />
        </mxCell>
        <mxCell id="S4009wVQ3V9HcJUpgxrX-19" value="&lt;b&gt;&lt;font style=&quot;font-size: 14px&quot; color=&quot;#ff0000&quot;&gt;选票格式：vote = (myid, zxid)&lt;/font&gt;&lt;/b&gt;" style="shape=document;whiteSpace=wrap;html=1;boundedLbl=1;fillColor=#f5f5f5;strokeColor=#666666;fontColor=#333333;" vertex="1" parent="1">
          <mxGeometry x="120" y="70" width="220" height="80" as="geometry" />
        </mxCell>
        <mxCell id="S4009wVQ3V9HcJUpgxrX-22" style="edgeStyle=none;rounded=0;orthogonalLoop=1;jettySize=auto;html=1;exitX=1;exitY=0.5;exitDx=0;exitDy=0;entryX=0;entryY=0.5;entryDx=0;entryDy=0;entryPerimeter=0;dashed=1;fontSize=14;fontColor=#FF0000;strokeColor=#000000;" edge="1" parent="1" source="S4009wVQ3V9HcJUpgxrX-20" target="S4009wVQ3V9HcJUpgxrX-21">
          <mxGeometry relative="1" as="geometry" />
        </mxCell>
        <mxCell id="S4009wVQ3V9HcJUpgxrX-20" value="myid = 3" style="ellipse;whiteSpace=wrap;html=1;aspect=fixed;fillColor=#d5e8d4;strokeColor=#82b366;" vertex="1" parent="1">
          <mxGeometry x="594" y="800" width="80" height="80" as="geometry" />
        </mxCell>
        <mxCell id="S4009wVQ3V9HcJUpgxrX-21" value="myid = 3 的机器，启动时发现已经有 leader 了，此时会让自己变成 follower" style="shape=note;whiteSpace=wrap;html=1;backgroundOutline=1;darkOpacity=0.05;size=16;perimeterSpacing=0;spacing=5;spacingTop=5;spacingLeft=5;spacingBottom=5;spacingRight=5;align=left;fillColor=#fff2cc;strokeColor=#d6b656;" vertex="1" parent="1">
          <mxGeometry x="850" y="800" width="260" height="75" as="geometry" />
        </mxCell>
        <mxCell id="S4009wVQ3V9HcJUpgxrX-27" value="" style="edgeStyle=none;rounded=0;orthogonalLoop=1;jettySize=auto;html=1;fontFamily=Helvetica;fontSize=14;fontColor=default;strokeColor=#000000;" edge="1" parent="1" source="S4009wVQ3V9HcJUpgxrX-23" target="S4009wVQ3V9HcJUpgxrX-26">
          <mxGeometry relative="1" as="geometry" />
        </mxCell>
        <mxCell id="S4009wVQ3V9HcJUpgxrX-28" value="args = /conf/zoo.cfg" style="edgeLabel;html=1;align=center;verticalAlign=middle;resizable=0;points=[];fontSize=14;fontFamily=Helvetica;fontColor=default;" vertex="1" connectable="0" parent="S4009wVQ3V9HcJUpgxrX-27">
          <mxGeometry x="-0.3125" y="-1" relative="1" as="geometry">
            <mxPoint x="1" y="9" as="offset" />
          </mxGeometry>
        </mxCell>
        <mxCell id="S4009wVQ3V9HcJUpgxrX-23" value="QuorumPeerMain#main" style="rounded=0;whiteSpace=wrap;html=1;fontSize=14;fillColor=#d5e8d4;strokeColor=#82b366;" vertex="1" parent="1">
          <mxGeometry x="100" y="1060" width="180" height="60" as="geometry" />
        </mxCell>
        <mxCell id="S4009wVQ3V9HcJUpgxrX-32" value="" style="edgeStyle=none;rounded=0;orthogonalLoop=1;jettySize=auto;html=1;fontFamily=Helvetica;fontSize=14;fontColor=default;strokeColor=#000000;" edge="1" parent="1" source="S4009wVQ3V9HcJUpgxrX-26" target="S4009wVQ3V9HcJUpgxrX-31">
          <mxGeometry relative="1" as="geometry" />
        </mxCell>
        <mxCell id="S4009wVQ3V9HcJUpgxrX-33" value="解析配置文件加载到内存" style="edgeLabel;html=1;align=center;verticalAlign=middle;resizable=0;points=[];fontSize=14;fontFamily=Helvetica;fontColor=default;" vertex="1" connectable="0" parent="S4009wVQ3V9HcJUpgxrX-32">
          <mxGeometry x="-0.0667" relative="1" as="geometry">
            <mxPoint as="offset" />
          </mxGeometry>
        </mxCell>
        <mxCell id="S4009wVQ3V9HcJUpgxrX-26" value="initializeAndRun(args);" style="whiteSpace=wrap;html=1;fontSize=14;rounded=0;" vertex="1" parent="1">
          <mxGeometry x="102.5" y="1180" width="175" height="60" as="geometry" />
        </mxCell>
        <mxCell id="S4009wVQ3V9HcJUpgxrX-35" value="" style="edgeStyle=none;rounded=0;orthogonalLoop=1;jettySize=auto;html=1;fontFamily=Helvetica;fontSize=14;fontColor=default;strokeColor=#000000;" edge="1" parent="1" source="S4009wVQ3V9HcJUpgxrX-31" target="S4009wVQ3V9HcJUpgxrX-34">
          <mxGeometry relative="1" as="geometry" />
        </mxCell>
        <mxCell id="S4009wVQ3V9HcJUpgxrX-36" value="清理快照文件定时任务" style="edgeLabel;html=1;align=center;verticalAlign=middle;resizable=0;points=[];fontSize=14;fontFamily=Helvetica;fontColor=default;" vertex="1" connectable="0" parent="S4009wVQ3V9HcJUpgxrX-35">
          <mxGeometry x="-0.0303" y="-1" relative="1" as="geometry">
            <mxPoint as="offset" />
          </mxGeometry>
        </mxCell>
        <mxCell id="S4009wVQ3V9HcJUpgxrX-31" value="config.parse(args[0]);" style="whiteSpace=wrap;html=1;fontSize=14;fillColor=rgb(255, 255, 255);strokeColor=rgb(0, 0, 0);fontColor=rgb(0, 0, 0);rounded=0;" vertex="1" parent="1">
          <mxGeometry x="115" y="1300" width="150" height="65" as="geometry" />
        </mxCell>
        <mxCell id="S4009wVQ3V9HcJUpgxrX-38" value="" style="edgeStyle=none;rounded=0;orthogonalLoop=1;jettySize=auto;html=1;fontFamily=Helvetica;fontSize=14;fontColor=default;strokeColor=#000000;" edge="1" parent="1" source="S4009wVQ3V9HcJUpgxrX-34" target="S4009wVQ3V9HcJUpgxrX-37">
          <mxGeometry relative="1" as="geometry" />
        </mxCell>
        <mxCell id="S4009wVQ3V9HcJUpgxrX-39" value="核心启动流程" style="edgeLabel;html=1;align=center;verticalAlign=middle;resizable=0;points=[];fontSize=14;fontFamily=Helvetica;fontColor=default;" vertex="1" connectable="0" parent="S4009wVQ3V9HcJUpgxrX-38">
          <mxGeometry x="-0.04" relative="1" as="geometry">
            <mxPoint as="offset" />
          </mxGeometry>
        </mxCell>
        <mxCell id="S4009wVQ3V9HcJUpgxrX-34" value="purgeMgr.start();" style="whiteSpace=wrap;html=1;fontSize=14;fillColor=rgb(255, 255, 255);strokeColor=rgb(0, 0, 0);fontColor=rgb(0, 0, 0);rounded=0;" vertex="1" parent="1">
          <mxGeometry x="130" y="1430" width="120" height="60" as="geometry" />
        </mxCell>
        <mxCell id="S4009wVQ3V9HcJUpgxrX-41" value="" style="edgeStyle=orthogonalEdgeStyle;rounded=0;orthogonalLoop=1;jettySize=auto;html=1;fontFamily=Helvetica;fontSize=14;fontColor=default;strokeColor=#000000;curved=1;entryX=0;entryY=0.5;entryDx=0;entryDy=0;" edge="1" parent="1" source="S4009wVQ3V9HcJUpgxrX-37" target="S4009wVQ3V9HcJUpgxrX-40">
          <mxGeometry relative="1" as="geometry">
            <Array as="points">
              <mxPoint x="310" y="1580" />
              <mxPoint x="310" y="1090" />
            </Array>
          </mxGeometry>
        </mxCell>
        <mxCell id="S4009wVQ3V9HcJUpgxrX-42" value="注册 JMX" style="edgeLabel;html=1;align=center;verticalAlign=middle;resizable=0;points=[];fontSize=14;fontFamily=Helvetica;fontColor=default;" vertex="1" connectable="0" parent="S4009wVQ3V9HcJUpgxrX-41">
          <mxGeometry x="0.1203" y="1" relative="1" as="geometry">
            <mxPoint x="1" as="offset" />
          </mxGeometry>
        </mxCell>
        <mxCell id="S4009wVQ3V9HcJUpgxrX-44" value="" style="edgeStyle=orthogonalEdgeStyle;curved=1;rounded=0;orthogonalLoop=1;jettySize=auto;html=1;fontFamily=Helvetica;fontSize=14;fontColor=default;strokeColor=#000000;entryX=0;entryY=0.5;entryDx=0;entryDy=0;" edge="1" parent="1" source="S4009wVQ3V9HcJUpgxrX-37" target="S4009wVQ3V9HcJUpgxrX-43">
          <mxGeometry relative="1" as="geometry">
            <Array as="points">
              <mxPoint x="350" y="1580" />
              <mxPoint x="350" y="1190" />
            </Array>
          </mxGeometry>
        </mxCell>
        <mxCell id="S4009wVQ3V9HcJUpgxrX-45" value="注册服务端连接对象&lt;br&gt;默认使用 NIO，推荐使用 Netty" style="edgeLabel;html=1;align=center;verticalAlign=middle;resizable=0;points=[];fontSize=14;fontFamily=Helvetica;fontColor=default;" vertex="1" connectable="0" parent="S4009wVQ3V9HcJUpgxrX-44">
          <mxGeometry x="0.0778" y="1" relative="1" as="geometry">
            <mxPoint x="1" y="1" as="offset" />
          </mxGeometry>
        </mxCell>
        <mxCell id="S4009wVQ3V9HcJUpgxrX-61" value="" style="edgeStyle=orthogonalEdgeStyle;rounded=0;orthogonalLoop=1;jettySize=auto;html=1;fontFamily=Helvetica;fontSize=14;fontColor=default;strokeColor=#000000;exitX=1;exitY=0.5;exitDx=0;exitDy=0;curved=1;entryX=0;entryY=0.5;entryDx=0;entryDy=0;" edge="1" parent="1" target="S4009wVQ3V9HcJUpgxrX-60">
          <mxGeometry relative="1" as="geometry">
            <mxPoint x="265" y="1580" as="sourcePoint" />
            <mxPoint x="550" y="1290" as="targetPoint" />
            <Array as="points">
              <mxPoint x="410" y="1580" />
              <mxPoint x="410" y="1290" />
            </Array>
          </mxGeometry>
        </mxCell>
        <mxCell id="S4009wVQ3V9HcJUpgxrX-62" value="获取本服务节点对象" style="edgeLabel;html=1;align=center;verticalAlign=middle;resizable=0;points=[];fontSize=14;fontFamily=Helvetica;fontColor=default;" vertex="1" connectable="0" parent="S4009wVQ3V9HcJUpgxrX-61">
          <mxGeometry x="0.6696" y="-27" relative="1" as="geometry">
            <mxPoint x="-35" y="83" as="offset" />
          </mxGeometry>
        </mxCell>
        <mxCell id="S4009wVQ3V9HcJUpgxrX-78" value="" style="edgeStyle=orthogonalEdgeStyle;curved=1;rounded=0;orthogonalLoop=1;jettySize=auto;html=1;fontFamily=Helvetica;fontSize=14;fontColor=default;strokeColor=#000000;entryX=0;entryY=0.5;entryDx=0;entryDy=0;exitX=0.5;exitY=1;exitDx=0;exitDy=0;" edge="1" parent="1" source="S4009wVQ3V9HcJUpgxrX-37" target="S4009wVQ3V9HcJUpgxrX-77">
          <mxGeometry relative="1" as="geometry" />
        </mxCell>
        <mxCell id="S4009wVQ3V9HcJUpgxrX-79" value="启动服务节点" style="edgeLabel;html=1;align=center;verticalAlign=middle;resizable=0;points=[];fontSize=14;fontFamily=Helvetica;fontColor=default;" vertex="1" connectable="0" parent="S4009wVQ3V9HcJUpgxrX-78">
          <mxGeometry x="0.1538" y="-3" relative="1" as="geometry">
            <mxPoint y="-2" as="offset" />
          </mxGeometry>
        </mxCell>
        <mxCell id="S4009wVQ3V9HcJUpgxrX-93" style="edgeStyle=orthogonalEdgeStyle;curved=1;rounded=0;orthogonalLoop=1;jettySize=auto;html=1;exitX=1;exitY=0.5;exitDx=0;exitDy=0;entryX=0;entryY=0.5;entryDx=0;entryDy=0;fontFamily=Helvetica;fontSize=14;fontColor=default;strokeColor=#000000;" edge="1" parent="1" source="S4009wVQ3V9HcJUpgxrX-37" target="S4009wVQ3V9HcJUpgxrX-67">
          <mxGeometry relative="1" as="geometry" />
        </mxCell>
        <mxCell id="S4009wVQ3V9HcJUpgxrX-96" value="设置 myid" style="edgeLabel;html=1;align=center;verticalAlign=middle;resizable=0;points=[];fontSize=14;fontFamily=Helvetica;fontColor=default;" vertex="1" connectable="0" parent="S4009wVQ3V9HcJUpgxrX-93">
          <mxGeometry x="0.445" y="-9" relative="1" as="geometry">
            <mxPoint as="offset" />
          </mxGeometry>
        </mxCell>
        <mxCell id="S4009wVQ3V9HcJUpgxrX-94" style="edgeStyle=orthogonalEdgeStyle;curved=1;rounded=0;orthogonalLoop=1;jettySize=auto;html=1;exitX=1;exitY=0.5;exitDx=0;exitDy=0;entryX=0;entryY=0.5;entryDx=0;entryDy=0;fontFamily=Helvetica;fontSize=14;fontColor=default;strokeColor=#000000;" edge="1" parent="1" source="S4009wVQ3V9HcJUpgxrX-37" target="S4009wVQ3V9HcJUpgxrX-71">
          <mxGeometry relative="1" as="geometry" />
        </mxCell>
        <mxCell id="S4009wVQ3V9HcJUpgxrX-97" value="初始化内存数据库" style="edgeLabel;html=1;align=center;verticalAlign=middle;resizable=0;points=[];fontSize=14;fontFamily=Helvetica;fontColor=default;" vertex="1" connectable="0" parent="S4009wVQ3V9HcJUpgxrX-94">
          <mxGeometry x="0.4556" relative="1" as="geometry">
            <mxPoint as="offset" />
          </mxGeometry>
        </mxCell>
        <mxCell id="S4009wVQ3V9HcJUpgxrX-95" style="edgeStyle=orthogonalEdgeStyle;curved=1;rounded=0;orthogonalLoop=1;jettySize=auto;html=1;exitX=1;exitY=0.5;exitDx=0;exitDy=0;entryX=0;entryY=0.5;entryDx=0;entryDy=0;fontFamily=Helvetica;fontSize=14;fontColor=default;strokeColor=#000000;" edge="1" parent="1" source="S4009wVQ3V9HcJUpgxrX-37" target="S4009wVQ3V9HcJUpgxrX-74">
          <mxGeometry relative="1" as="geometry" />
        </mxCell>
        <mxCell id="S4009wVQ3V9HcJUpgxrX-98" value="设置服务节点" style="edgeLabel;html=1;align=center;verticalAlign=middle;resizable=0;points=[];fontSize=14;fontFamily=Helvetica;fontColor=default;" vertex="1" connectable="0" parent="S4009wVQ3V9HcJUpgxrX-95">
          <mxGeometry x="0.4577" y="5" relative="1" as="geometry">
            <mxPoint as="offset" />
          </mxGeometry>
        </mxCell>
        <mxCell id="S4009wVQ3V9HcJUpgxrX-37" value="runFromConfig(config);" style="whiteSpace=wrap;html=1;fontSize=14;fillColor=#f8cecc;strokeColor=#b85450;rounded=0;" vertex="1" parent="1">
          <mxGeometry x="105" y="1550" width="170" height="60" as="geometry" />
        </mxCell>
        <mxCell id="S4009wVQ3V9HcJUpgxrX-40" value="ManagedUtil.registerLog4jMBeans();" style="whiteSpace=wrap;html=1;fontSize=14;rounded=0;" vertex="1" parent="1">
          <mxGeometry x="439" y="1060" width="250" height="60" as="geometry" />
        </mxCell>
        <mxCell id="S4009wVQ3V9HcJUpgxrX-47" value="" style="edgeStyle=orthogonalEdgeStyle;curved=1;rounded=0;orthogonalLoop=1;jettySize=auto;html=1;fontFamily=Helvetica;fontSize=14;fontColor=default;strokeColor=#000000;" edge="1" parent="1" source="S4009wVQ3V9HcJUpgxrX-43" target="S4009wVQ3V9HcJUpgxrX-46">
          <mxGeometry relative="1" as="geometry" />
        </mxCell>
        <mxCell id="S4009wVQ3V9HcJUpgxrX-51" value="初始化 Nettry 线程组&lt;br&gt;bossGroup 和 workGroup" style="edgeLabel;html=1;align=center;verticalAlign=middle;resizable=0;points=[];fontSize=14;fontFamily=Helvetica;fontColor=default;" vertex="1" connectable="0" parent="S4009wVQ3V9HcJUpgxrX-47">
          <mxGeometry x="-0.2165" relative="1" as="geometry">
            <mxPoint x="20" as="offset" />
          </mxGeometry>
        </mxCell>
        <mxCell id="S4009wVQ3V9HcJUpgxrX-43" value="ServerCnxnFactory.createFactory();" style="whiteSpace=wrap;html=1;fontSize=14;rounded=0;" vertex="1" parent="1">
          <mxGeometry x="502" y="1160" width="251" height="60" as="geometry" />
        </mxCell>
        <mxCell id="S4009wVQ3V9HcJUpgxrX-53" value="" style="edgeStyle=entityRelationEdgeStyle;rounded=0;orthogonalLoop=1;jettySize=auto;html=1;fontFamily=Helvetica;fontSize=14;fontColor=default;strokeColor=#000000;" edge="1" parent="1" source="S4009wVQ3V9HcJUpgxrX-46" target="S4009wVQ3V9HcJUpgxrX-52">
          <mxGeometry relative="1" as="geometry" />
        </mxCell>
        <mxCell id="S4009wVQ3V9HcJUpgxrX-54" value="绑定业务处理&lt;br&gt;CnxnChannelHandler" style="edgeLabel;html=1;align=center;verticalAlign=middle;resizable=0;points=[];fontSize=14;fontFamily=Helvetica;fontColor=default;" vertex="1" connectable="0" parent="S4009wVQ3V9HcJUpgxrX-53">
          <mxGeometry x="-0.0642" y="-1" relative="1" as="geometry">
            <mxPoint x="1" y="1" as="offset" />
          </mxGeometry>
        </mxCell>
        <mxCell id="S4009wVQ3V9HcJUpgxrX-46" value="&lt;span style=&quot;text-align: left&quot;&gt;NettyServerCnxnFactory&lt;/span&gt;" style="whiteSpace=wrap;html=1;fontSize=14;fillColor=rgb(255, 255, 255);strokeColor=rgb(0, 0, 0);fontColor=rgb(0, 0, 0);rounded=0;" vertex="1" parent="1">
          <mxGeometry x="1000" y="1160" width="201.5" height="60" as="geometry" />
        </mxCell>
        <mxCell id="S4009wVQ3V9HcJUpgxrX-49" value="如果需要使用 Netty，则需要配置：&amp;nbsp;&lt;br&gt;zookeeper.serverCnxnFactory=org.apache.zookeeper.server.NettyServerCnxnFactory" style="whiteSpace=wrap;html=1;shape=partialRectangle;top=0;left=0;bottom=1;right=0;points=[[0,1],[1,1]];fillColor=#fff2cc;align=left;verticalAlign=bottom;routingCenterY=0.5;snapToPoint=1;recursiveResize=0;autosize=1;treeFolding=1;treeMoving=1;newEdgeStyle={&quot;edgeStyle&quot;:&quot;entityRelationEdgeStyle&quot;,&quot;startArrow&quot;:&quot;none&quot;,&quot;endArrow&quot;:&quot;none&quot;,&quot;segment&quot;:10,&quot;curved&quot;:1};rounded=0;fontFamily=Helvetica;fontSize=14;strokeColor=#d6b656;" vertex="1" parent="1">
          <mxGeometry x="740" y="1070" width="570" height="40" as="geometry" />
        </mxCell>
        <mxCell id="S4009wVQ3V9HcJUpgxrX-50" value="" style="edgeStyle=entityRelationEdgeStyle;startArrow=none;endArrow=none;segment=10;rounded=0;fontColor=#000000;fontFamily=Helvetica;fontSize=14;strokeColor=#000000;exitX=0.5;exitY=0;exitDx=0;exitDy=0;" edge="1" target="S4009wVQ3V9HcJUpgxrX-49" parent="1" source="S4009wVQ3V9HcJUpgxrX-43">
          <mxGeometry relative="1" as="geometry">
            <mxPoint x="616.25" y="1150" as="sourcePoint" />
          </mxGeometry>
        </mxCell>
        <mxCell id="S4009wVQ3V9HcJUpgxrX-56" value="" style="edgeStyle=entityRelationEdgeStyle;rounded=0;orthogonalLoop=1;jettySize=auto;html=1;fontFamily=Helvetica;fontSize=14;fontColor=default;strokeColor=#000000;dashed=1;" edge="1" parent="1" source="S4009wVQ3V9HcJUpgxrX-52" target="S4009wVQ3V9HcJUpgxrX-55">
          <mxGeometry relative="1" as="geometry" />
        </mxCell>
        <mxCell id="S4009wVQ3V9HcJUpgxrX-52" value="pipeline.addLast(&quot;servercnxnfactory&quot;, channelHandler);" style="whiteSpace=wrap;html=1;fontSize=14;fillColor=rgb(255, 255, 255);strokeColor=rgb(0, 0, 0);fontColor=rgb(0, 0, 0);rounded=0;" vertex="1" parent="1">
          <mxGeometry x="1410" y="1160" width="387.75" height="60" as="geometry" />
        </mxCell>
        <mxCell id="S4009wVQ3V9HcJUpgxrX-55" value="CnxnChannelHandler#channelRead" style="whiteSpace=wrap;html=1;fontSize=14;fillColor=rgb(255, 255, 255);strokeColor=rgb(0, 0, 0);fontColor=rgb(0, 0, 0);rounded=0;" vertex="1" parent="1">
          <mxGeometry x="1910" y="1160" width="278.38" height="60" as="geometry" />
        </mxCell>
        <mxCell id="S4009wVQ3V9HcJUpgxrX-58" style="rounded=0;orthogonalLoop=1;jettySize=auto;html=1;exitX=0.5;exitY=1;exitDx=0;exitDy=0;entryX=0.5;entryY=0;entryDx=0;entryDy=0;fontFamily=Helvetica;fontSize=14;fontColor=default;strokeColor=#000000;" edge="1" parent="1" source="S4009wVQ3V9HcJUpgxrX-57" target="S4009wVQ3V9HcJUpgxrX-55">
          <mxGeometry relative="1" as="geometry" />
        </mxCell>
        <mxCell id="S4009wVQ3V9HcJUpgxrX-59" value="create /path value" style="edgeLabel;html=1;align=center;verticalAlign=middle;resizable=0;points=[];fontSize=14;fontFamily=Helvetica;fontColor=default;" vertex="1" connectable="0" parent="S4009wVQ3V9HcJUpgxrX-58">
          <mxGeometry x="-0.1" y="-1" relative="1" as="geometry">
            <mxPoint as="offset" />
          </mxGeometry>
        </mxCell>
        <mxCell id="S4009wVQ3V9HcJUpgxrX-57" value="Client" style="ellipse;whiteSpace=wrap;html=1;aspect=fixed;rounded=0;fontFamily=Helvetica;fontSize=14;strokeColor=#82b366;fillColor=#d5e8d4;" vertex="1" parent="1">
          <mxGeometry x="2009.19" y="960" width="80" height="80" as="geometry" />
        </mxCell>
        <mxCell id="S4009wVQ3V9HcJUpgxrX-66" value="" style="edgeStyle=orthogonalEdgeStyle;curved=1;rounded=0;orthogonalLoop=1;jettySize=auto;html=1;fontFamily=Helvetica;fontSize=14;fontColor=default;strokeColor=#000000;exitX=1;exitY=0.5;exitDx=0;exitDy=0;entryX=0;entryY=0.5;entryDx=0;entryDy=0;" edge="1" parent="1" source="S4009wVQ3V9HcJUpgxrX-37" target="S4009wVQ3V9HcJUpgxrX-65">
          <mxGeometry relative="1" as="geometry" />
        </mxCell>
        <mxCell id="S4009wVQ3V9HcJUpgxrX-69" value="设置选举类型&lt;br&gt;默认为：3" style="edgeLabel;html=1;align=center;verticalAlign=middle;resizable=0;points=[];fontSize=14;fontFamily=Helvetica;fontColor=default;" vertex="1" connectable="0" parent="S4009wVQ3V9HcJUpgxrX-66">
          <mxGeometry x="0.1724" relative="1" as="geometry">
            <mxPoint x="32" as="offset" />
          </mxGeometry>
        </mxCell>
        <mxCell id="S4009wVQ3V9HcJUpgxrX-92" value="" style="edgeStyle=orthogonalEdgeStyle;curved=1;rounded=0;orthogonalLoop=1;jettySize=auto;html=1;fontFamily=Helvetica;fontSize=14;fontColor=default;strokeColor=#000000;" edge="1" parent="1" source="S4009wVQ3V9HcJUpgxrX-60" target="S4009wVQ3V9HcJUpgxrX-91">
          <mxGeometry relative="1" as="geometry" />
        </mxCell>
        <mxCell id="S4009wVQ3V9HcJUpgxrX-60" value="quorumPeer = getQuorumPeer();" style="whiteSpace=wrap;html=1;fontSize=14;rounded=0;" vertex="1" parent="1">
          <mxGeometry x="560" y="1260" width="248" height="60" as="geometry" />
        </mxCell>
        <mxCell id="S4009wVQ3V9HcJUpgxrX-65" value="&lt;div&gt;quorumPeer.setElectionType(config.getElectionAlg());&lt;/div&gt;" style="whiteSpace=wrap;html=1;fontSize=14;fillColor=#f8cecc;strokeColor=#b85450;rounded=0;" vertex="1" parent="1">
          <mxGeometry x="720" y="1380" width="358" height="50" as="geometry" />
        </mxCell>
        <mxCell id="S4009wVQ3V9HcJUpgxrX-67" value="&lt;span&gt;quorumPeer.setMyid(config.getServerId());&lt;/span&gt;" style="whiteSpace=wrap;html=1;fontSize=14;fillColor=rgb(255, 255, 255);strokeColor=rgb(0, 0, 0);fontColor=rgb(0, 0, 0);rounded=0;" vertex="1" parent="1">
          <mxGeometry x="740" y="1470" width="288" height="50" as="geometry" />
        </mxCell>
        <mxCell id="S4009wVQ3V9HcJUpgxrX-71" value="quorumPeer.setZKDatabase(new ZKDatabase(quorumPeer.getTxnFactory()));" style="whiteSpace=wrap;html=1;fontSize=14;fillColor=rgb(255, 255, 255);strokeColor=rgb(0, 0, 0);fontColor=rgb(0, 0, 0);rounded=0;" vertex="1" parent="1">
          <mxGeometry x="740" y="1550" width="547" height="50" as="geometry" />
        </mxCell>
        <mxCell id="S4009wVQ3V9HcJUpgxrX-74" value="quorumPeer.setCnxnFactory(cnxnFactory);" style="whiteSpace=wrap;html=1;fontSize=14;fillColor=rgb(255, 255, 255);strokeColor=rgb(0, 0, 0);fontColor=rgb(0, 0, 0);rounded=0;" vertex="1" parent="1">
          <mxGeometry x="740" y="1640" width="290" height="50" as="geometry" />
        </mxCell>
        <mxCell id="S4009wVQ3V9HcJUpgxrX-81" value="" style="edgeStyle=orthogonalEdgeStyle;curved=1;rounded=0;orthogonalLoop=1;jettySize=auto;html=1;fontFamily=Helvetica;fontSize=14;fontColor=default;strokeColor=#000000;entryX=0;entryY=0.5;entryDx=0;entryDy=0;" edge="1" parent="1" source="S4009wVQ3V9HcJUpgxrX-77" target="S4009wVQ3V9HcJUpgxrX-80">
          <mxGeometry relative="1" as="geometry" />
        </mxCell>
        <mxCell id="S4009wVQ3V9HcJUpgxrX-82" value="加载本地文件到内存" style="edgeLabel;html=1;align=center;verticalAlign=middle;resizable=0;points=[];fontSize=14;fontFamily=Helvetica;fontColor=default;" vertex="1" connectable="0" parent="S4009wVQ3V9HcJUpgxrX-81">
          <mxGeometry x="-0.0957" y="2" relative="1" as="geometry">
            <mxPoint y="1" as="offset" />
          </mxGeometry>
        </mxCell>
        <mxCell id="S4009wVQ3V9HcJUpgxrX-99" style="edgeStyle=orthogonalEdgeStyle;curved=1;rounded=0;orthogonalLoop=1;jettySize=auto;html=1;exitX=1;exitY=0.5;exitDx=0;exitDy=0;entryX=0;entryY=0.5;entryDx=0;entryDy=0;fontFamily=Helvetica;fontSize=14;fontColor=default;strokeColor=#000000;" edge="1" parent="1" source="S4009wVQ3V9HcJUpgxrX-77" target="S4009wVQ3V9HcJUpgxrX-83">
          <mxGeometry relative="1" as="geometry" />
        </mxCell>
        <mxCell id="S4009wVQ3V9HcJUpgxrX-100" value="启动 Netty 服务" style="edgeLabel;html=1;align=center;verticalAlign=middle;resizable=0;points=[];fontSize=14;fontFamily=Helvetica;fontColor=default;" vertex="1" connectable="0" parent="S4009wVQ3V9HcJUpgxrX-99">
          <mxGeometry x="0.0433" y="-3" relative="1" as="geometry">
            <mxPoint x="15" as="offset" />
          </mxGeometry>
        </mxCell>
        <mxCell id="S4009wVQ3V9HcJUpgxrX-103" value="" style="edgeStyle=orthogonalEdgeStyle;curved=1;rounded=0;orthogonalLoop=1;jettySize=auto;html=1;fontFamily=Helvetica;fontSize=14;fontColor=default;strokeColor=#000000;entryX=0;entryY=0.5;entryDx=0;entryDy=0;" edge="1" parent="1" source="S4009wVQ3V9HcJUpgxrX-77" target="S4009wVQ3V9HcJUpgxrX-102">
          <mxGeometry relative="1" as="geometry" />
        </mxCell>
        <mxCell id="S4009wVQ3V9HcJUpgxrX-104" value="启动 Jetty 管理服务，用来查看服务端状态&lt;br&gt;默认端口：8080" style="edgeLabel;html=1;align=center;verticalAlign=middle;resizable=0;points=[];fontSize=14;fontFamily=Helvetica;fontColor=default;" vertex="1" connectable="0" parent="S4009wVQ3V9HcJUpgxrX-103">
          <mxGeometry x="0.3983" y="8" relative="1" as="geometry">
            <mxPoint as="offset" />
          </mxGeometry>
        </mxCell>
        <mxCell id="S4009wVQ3V9HcJUpgxrX-109" value="" style="edgeStyle=orthogonalEdgeStyle;curved=1;rounded=0;orthogonalLoop=1;jettySize=auto;html=1;fontFamily=Helvetica;fontSize=14;fontColor=default;strokeColor=#000000;entryX=0;entryY=0.5;entryDx=0;entryDy=0;" edge="1" parent="1" source="S4009wVQ3V9HcJUpgxrX-77" target="S4009wVQ3V9HcJUpgxrX-108">
          <mxGeometry relative="1" as="geometry" />
        </mxCell>
        <mxCell id="S4009wVQ3V9HcJUpgxrX-110" value="初始化集群选举 leader 相关数据" style="edgeLabel;html=1;align=center;verticalAlign=middle;resizable=0;points=[];fontSize=14;fontFamily=Helvetica;fontColor=default;" vertex="1" connectable="0" parent="S4009wVQ3V9HcJUpgxrX-109">
          <mxGeometry x="-0.0064" y="-4" relative="1" as="geometry">
            <mxPoint as="offset" />
          </mxGeometry>
        </mxCell>
        <mxCell id="S4009wVQ3V9HcJUpgxrX-77" value="quorumPeer.start();" style="whiteSpace=wrap;html=1;fontSize=14;fillColor=#dae8fc;strokeColor=#6c8ebf;rounded=0;" vertex="1" parent="1">
          <mxGeometry x="464" y="1850" width="190" height="60" as="geometry" />
        </mxCell>
        <mxCell id="S4009wVQ3V9HcJUpgxrX-80" value="loadDataBase();" style="whiteSpace=wrap;html=1;fontSize=14;rounded=0;" vertex="1" parent="1">
          <mxGeometry x="740" y="1740" width="120" height="60" as="geometry" />
        </mxCell>
        <mxCell id="S4009wVQ3V9HcJUpgxrX-88" value="" style="edgeStyle=orthogonalEdgeStyle;curved=1;rounded=0;orthogonalLoop=1;jettySize=auto;html=1;fontFamily=Helvetica;fontSize=14;fontColor=default;strokeColor=#000000;" edge="1" parent="1" source="S4009wVQ3V9HcJUpgxrX-83" target="S4009wVQ3V9HcJUpgxrX-87">
          <mxGeometry relative="1" as="geometry" />
        </mxCell>
        <mxCell id="S4009wVQ3V9HcJUpgxrX-83" value="startServerCnxnFactory();" style="whiteSpace=wrap;html=1;fontSize=14;rounded=0;" vertex="1" parent="1">
          <mxGeometry x="910" y="1810" width="190" height="60" as="geometry" />
        </mxCell>
        <mxCell id="S4009wVQ3V9HcJUpgxrX-90" value="" style="edgeStyle=orthogonalEdgeStyle;curved=1;rounded=0;orthogonalLoop=1;jettySize=auto;html=1;fontFamily=Helvetica;fontSize=14;fontColor=default;strokeColor=#000000;" edge="1" parent="1" source="S4009wVQ3V9HcJUpgxrX-87" target="S4009wVQ3V9HcJUpgxrX-89">
          <mxGeometry relative="1" as="geometry" />
        </mxCell>
        <mxCell id="S4009wVQ3V9HcJUpgxrX-101" value="绑定启动端口" style="edgeLabel;html=1;align=center;verticalAlign=middle;resizable=0;points=[];fontSize=14;fontFamily=Helvetica;fontColor=default;" vertex="1" connectable="0" parent="S4009wVQ3V9HcJUpgxrX-90">
          <mxGeometry x="-0.3356" y="-2" relative="1" as="geometry">
            <mxPoint x="17" y="-2" as="offset" />
          </mxGeometry>
        </mxCell>
        <mxCell id="S4009wVQ3V9HcJUpgxrX-87" value="NettyServerCnxnFactory#start" style="whiteSpace=wrap;html=1;fontSize=14;fillColor=rgb(255, 255, 255);strokeColor=rgb(0, 0, 0);fontColor=rgb(0, 0, 0);rounded=0;" vertex="1" parent="1">
          <mxGeometry x="1180" y="1810" width="245" height="60" as="geometry" />
        </mxCell>
        <mxCell id="S4009wVQ3V9HcJUpgxrX-89" value="bootstrap.bind(localAddress)" style="whiteSpace=wrap;html=1;fontSize=14;fillColor=rgb(255, 255, 255);strokeColor=rgb(0, 0, 0);fontColor=rgb(0, 0, 0);rounded=0;" vertex="1" parent="1">
          <mxGeometry x="1570" y="1810" width="222.5" height="60" as="geometry" />
        </mxCell>
        <mxCell id="S4009wVQ3V9HcJUpgxrX-107" style="edgeStyle=orthogonalEdgeStyle;curved=1;rounded=0;orthogonalLoop=1;jettySize=auto;html=1;exitX=1;exitY=0.5;exitDx=0;exitDy=0;entryX=1;entryY=0.5;entryDx=0;entryDy=0;dashed=1;fontFamily=Helvetica;fontSize=14;fontColor=default;strokeColor=#000000;" edge="1" parent="1" source="S4009wVQ3V9HcJUpgxrX-91" target="S4009wVQ3V9HcJUpgxrX-102">
          <mxGeometry relative="1" as="geometry">
            <Array as="points">
              <mxPoint x="1520" y="1290" />
              <mxPoint x="1520" y="1930" />
            </Array>
          </mxGeometry>
        </mxCell>
        <mxCell id="S4009wVQ3V9HcJUpgxrX-91" value="adminServer = AdminServerFactory.createAdminServer();" style="whiteSpace=wrap;html=1;fontSize=14;fillColor=#dae8fc;strokeColor=#6c8ebf;rounded=0;" vertex="1" parent="1">
          <mxGeometry x="1000" y="1260" width="410" height="60" as="geometry" />
        </mxCell>
        <mxCell id="S4009wVQ3V9HcJUpgxrX-102" value="adminServer.start();" style="whiteSpace=wrap;html=1;fontSize=14;rounded=0;" vertex="1" parent="1">
          <mxGeometry x="1180" y="1900" width="180" height="60" as="geometry" />
        </mxCell>
        <mxCell id="S4009wVQ3V9HcJUpgxrX-106" style="edgeStyle=orthogonalEdgeStyle;curved=1;rounded=0;orthogonalLoop=1;jettySize=auto;html=1;exitX=0.5;exitY=1;exitDx=0;exitDy=0;entryX=1;entryY=0.5;entryDx=0;entryDy=0;dashed=1;fontFamily=Helvetica;fontSize=14;fontColor=default;strokeColor=#000000;" edge="1" parent="1" source="S4009wVQ3V9HcJUpgxrX-46" target="S4009wVQ3V9HcJUpgxrX-74">
          <mxGeometry relative="1" as="geometry" />
        </mxCell>
        <mxCell id="S4009wVQ3V9HcJUpgxrX-112" value="" style="edgeStyle=orthogonalEdgeStyle;curved=1;rounded=0;orthogonalLoop=1;jettySize=auto;html=1;fontFamily=Helvetica;fontSize=14;fontColor=default;strokeColor=#000000;" edge="1" parent="1" source="S4009wVQ3V9HcJUpgxrX-108" target="S4009wVQ3V9HcJUpgxrX-111">
          <mxGeometry relative="1" as="geometry" />
        </mxCell>
        <mxCell id="S4009wVQ3V9HcJUpgxrX-113" value="创建选票" style="edgeLabel;html=1;align=center;verticalAlign=middle;resizable=0;points=[];fontSize=14;fontFamily=Helvetica;fontColor=default;" vertex="1" connectable="0" parent="S4009wVQ3V9HcJUpgxrX-112">
          <mxGeometry x="0.0155" y="-2" relative="1" as="geometry">
            <mxPoint as="offset" />
          </mxGeometry>
        </mxCell>
        <mxCell id="S4009wVQ3V9HcJUpgxrX-115" value="" style="edgeStyle=orthogonalEdgeStyle;curved=1;rounded=0;orthogonalLoop=1;jettySize=auto;html=1;fontFamily=Helvetica;fontSize=14;fontColor=default;strokeColor=#000000;" edge="1" parent="1" source="S4009wVQ3V9HcJUpgxrX-108" target="S4009wVQ3V9HcJUpgxrX-114">
          <mxGeometry relative="1" as="geometry" />
        </mxCell>
        <mxCell id="S4009wVQ3V9HcJUpgxrX-108" value="startLeaderElection();" style="whiteSpace=wrap;html=1;fontSize=14;rounded=0;fillColor=#f8cecc;strokeColor=#b85450;" vertex="1" parent="1">
          <mxGeometry x="766" y="2050" width="184" height="60" as="geometry" />
        </mxCell>
        <mxCell id="S4009wVQ3V9HcJUpgxrX-111" value="currentVote = new Vote(myid, getLastLoggedZxid(), getCurrentEpoch());" style="whiteSpace=wrap;html=1;fontSize=14;rounded=0;fillColor=#d5e8d4;strokeColor=#82b366;" vertex="1" parent="1">
          <mxGeometry x="1110" y="1990" width="498" height="60" as="geometry" />
        </mxCell>
        <mxCell id="S4009wVQ3V9HcJUpgxrX-118" value="" style="edgeStyle=orthogonalEdgeStyle;curved=1;rounded=0;orthogonalLoop=1;jettySize=auto;html=1;fontFamily=Helvetica;fontSize=14;fontColor=default;strokeColor=#000000;entryX=0;entryY=0.5;entryDx=0;entryDy=0;" edge="1" parent="1" source="S4009wVQ3V9HcJUpgxrX-114" target="S4009wVQ3V9HcJUpgxrX-117">
          <mxGeometry relative="1" as="geometry" />
        </mxCell>
        <mxCell id="S4009wVQ3V9HcJUpgxrX-119" value="初始化选举管理器" style="edgeLabel;html=1;align=center;verticalAlign=middle;resizable=0;points=[];fontSize=14;fontFamily=Helvetica;fontColor=default;" vertex="1" connectable="0" parent="S4009wVQ3V9HcJUpgxrX-118">
          <mxGeometry x="-0.1434" y="-2" relative="1" as="geometry">
            <mxPoint x="1" y="-17" as="offset" />
          </mxGeometry>
        </mxCell>
        <mxCell id="S4009wVQ3V9HcJUpgxrX-121" value="" style="edgeStyle=orthogonalEdgeStyle;curved=1;rounded=0;orthogonalLoop=1;jettySize=auto;html=1;fontFamily=Helvetica;fontSize=14;fontColor=default;strokeColor=#000000;entryX=0;entryY=0.5;entryDx=0;entryDy=0;" edge="1" parent="1" source="S4009wVQ3V9HcJUpgxrX-114" target="S4009wVQ3V9HcJUpgxrX-120">
          <mxGeometry relative="1" as="geometry" />
        </mxCell>
        <mxCell id="S4009wVQ3V9HcJUpgxrX-122" value="开启监听" style="edgeLabel;html=1;align=center;verticalAlign=middle;resizable=0;points=[];fontSize=14;fontFamily=Helvetica;fontColor=default;" vertex="1" connectable="0" parent="S4009wVQ3V9HcJUpgxrX-121">
          <mxGeometry x="0.2583" y="11" relative="1" as="geometry">
            <mxPoint x="1" as="offset" />
          </mxGeometry>
        </mxCell>
        <mxCell id="S4009wVQ3V9HcJUpgxrX-114" value="createElectionAlgorithm(electionType);" style="whiteSpace=wrap;html=1;fontSize=14;fillColor=#dae8fc;strokeColor=#6c8ebf;rounded=0;" vertex="1" parent="1">
          <mxGeometry x="1110" y="2100" width="358" height="60" as="geometry" />
        </mxCell>
        <mxCell id="S4009wVQ3V9HcJUpgxrX-117" value="createCnxnManager();" style="whiteSpace=wrap;html=1;fontSize=14;rounded=0;" vertex="1" parent="1">
          <mxGeometry x="1700" y="2030" width="223" height="60" as="geometry" />
        </mxCell>
        <mxCell id="S4009wVQ3V9HcJUpgxrX-124" value="" style="edgeStyle=orthogonalEdgeStyle;curved=1;rounded=0;orthogonalLoop=1;jettySize=auto;html=1;fontFamily=Helvetica;fontSize=14;fontColor=default;strokeColor=#000000;" edge="1" parent="1" source="S4009wVQ3V9HcJUpgxrX-120" target="S4009wVQ3V9HcJUpgxrX-123">
          <mxGeometry relative="1" as="geometry" />
        </mxCell>
        <mxCell id="S4009wVQ3V9HcJUpgxrX-125" value="调用 run 方法" style="edgeLabel;html=1;align=center;verticalAlign=middle;resizable=0;points=[];fontSize=14;fontFamily=Helvetica;fontColor=default;" vertex="1" connectable="0" parent="S4009wVQ3V9HcJUpgxrX-124">
          <mxGeometry x="-0.2176" y="-4" relative="1" as="geometry">
            <mxPoint x="16" y="-4" as="offset" />
          </mxGeometry>
        </mxCell>
        <mxCell id="S4009wVQ3V9HcJUpgxrX-120" value="listener.start();" style="whiteSpace=wrap;html=1;fontSize=14;rounded=0;fillColor=#f8cecc;strokeColor=#b85450;" vertex="1" parent="1">
          <mxGeometry x="1700" y="2140" width="120" height="60" as="geometry" />
        </mxCell>
        <mxCell id="S4009wVQ3V9HcJUpgxrX-127" value="" style="edgeStyle=orthogonalEdgeStyle;curved=1;rounded=0;orthogonalLoop=1;jettySize=auto;html=1;fontFamily=Helvetica;fontSize=14;fontColor=default;strokeColor=#000000;" edge="1" parent="1" source="S4009wVQ3V9HcJUpgxrX-123" target="S4009wVQ3V9HcJUpgxrX-126">
          <mxGeometry relative="1" as="geometry" />
        </mxCell>
        <mxCell id="S4009wVQ3V9HcJUpgxrX-128" value="在选举端口建立连接&lt;br&gt;使用 BIO 方式" style="edgeLabel;html=1;align=center;verticalAlign=middle;resizable=0;points=[];fontSize=14;fontFamily=Helvetica;fontColor=default;" vertex="1" connectable="0" parent="S4009wVQ3V9HcJUpgxrX-127">
          <mxGeometry x="0.3124" y="18" relative="1" as="geometry">
            <mxPoint as="offset" />
          </mxGeometry>
        </mxCell>
        <mxCell id="S4009wVQ3V9HcJUpgxrX-130" value="" style="edgeStyle=orthogonalEdgeStyle;curved=1;rounded=0;orthogonalLoop=1;jettySize=auto;html=1;fontFamily=Helvetica;fontSize=14;fontColor=default;strokeColor=#000000;" edge="1" parent="1" source="S4009wVQ3V9HcJUpgxrX-123" target="S4009wVQ3V9HcJUpgxrX-129">
          <mxGeometry relative="1" as="geometry" />
        </mxCell>
        <mxCell id="S4009wVQ3V9HcJUpgxrX-131" value="接受连接" style="edgeLabel;html=1;align=center;verticalAlign=middle;resizable=0;points=[];fontSize=14;fontFamily=Helvetica;fontColor=default;" vertex="1" connectable="0" parent="S4009wVQ3V9HcJUpgxrX-130">
          <mxGeometry x="-0.0303" y="-1" relative="1" as="geometry">
            <mxPoint as="offset" />
          </mxGeometry>
        </mxCell>
        <mxCell id="S4009wVQ3V9HcJUpgxrX-123" value="QuorumCnxManager.Listener#run" style="whiteSpace=wrap;html=1;fontSize=14;fillColor=#f8cecc;strokeColor=#b85450;fontColor=rgb(0, 0, 0);rounded=0;" vertex="1" parent="1">
          <mxGeometry x="2009.19" y="2140" width="280" height="60" as="geometry" />
        </mxCell>
        <mxCell id="S4009wVQ3V9HcJUpgxrX-126" value="ss = new ServerSocket();&lt;br&gt;&lt;div&gt;ss.bind(addr);&lt;/div&gt;&lt;div&gt;ss.accept();&lt;/div&gt;" style="whiteSpace=wrap;html=1;fontSize=14;rounded=0;fillColor=#dae8fc;strokeColor=#6c8ebf;" vertex="1" parent="1">
          <mxGeometry x="2300" y="1890" width="230" height="70" as="geometry" />
        </mxCell>
        <mxCell id="S4009wVQ3V9HcJUpgxrX-133" value="" style="edgeStyle=orthogonalEdgeStyle;curved=1;rounded=0;orthogonalLoop=1;jettySize=auto;html=1;fontFamily=Helvetica;fontSize=14;fontColor=default;strokeColor=#000000;" edge="1" parent="1" source="S4009wVQ3V9HcJUpgxrX-129" target="S4009wVQ3V9HcJUpgxrX-132">
          <mxGeometry relative="1" as="geometry" />
        </mxCell>
        <mxCell id="S4009wVQ3V9HcJUpgxrX-134" value="处理连接数据" style="edgeLabel;html=1;align=center;verticalAlign=middle;resizable=0;points=[];fontSize=14;fontFamily=Helvetica;fontColor=default;" vertex="1" connectable="0" parent="S4009wVQ3V9HcJUpgxrX-133">
          <mxGeometry x="-0.0867" y="1" relative="1" as="geometry">
            <mxPoint x="-1" as="offset" />
          </mxGeometry>
        </mxCell>
        <mxCell id="S4009wVQ3V9HcJUpgxrX-129" value="receiveConnection(client);" style="whiteSpace=wrap;html=1;fontSize=14;rounded=0;fillColor=#d5e8d4;strokeColor=#82b366;" vertex="1" parent="1">
          <mxGeometry x="2510" y="2140" width="230.81" height="60" as="geometry" />
        </mxCell>
        <mxCell id="S4009wVQ3V9HcJUpgxrX-132" value="handleConnection(sock, din);" style="whiteSpace=wrap;html=1;fontSize=14;rounded=0;fillColor=#d5e8d4;strokeColor=#82b366;" vertex="1" parent="1">
          <mxGeometry x="2890" y="2140" width="213.78" height="60" as="geometry" />
        </mxCell>
      </root>
    </mxGraphModel>
  </diagram>
</mxfile>
